<svg width="25" height="24" viewBox="0 0 25 24" fill="none" xmlns="http://www.w3.org/2000/svg">
<g clip-path="url(#clip0_846_205)">
<path d="M15.3559 8.69531C15.046 8.69531 14.7949 8.94692 14.7949 9.25737V19.8803C14.7949 20.1906 15.046 20.4424 15.3559 20.4424C15.6657 20.4424 15.9168 20.1906 15.9168 19.8803V9.25737C15.9168 8.94692 15.6657 8.69531 15.3559 8.69531Z" fill="#DC3545"/>
<path d="M8.73672 8.69531C8.42689 8.69531 8.17578 8.94692 8.17578 9.25737V19.8803C8.17578 20.1906 8.42689 20.4424 8.73672 20.4424C9.04655 20.4424 9.29766 20.1906 9.29766 19.8803V9.25737C9.29766 8.94692 9.04655 8.69531 8.73672 8.69531Z" fill="#DC3545"/>
<path d="M3.91249 7.14503V20.993C3.91249 21.8115 4.21202 22.5801 4.73527 23.1317C5.25611 23.6847 5.98095 23.9987 6.73953 24H17.3526C18.1114 23.9987 18.8363 23.6847 19.3569 23.1317C19.8801 22.5801 20.1797 21.8115 20.1797 20.993V7.14503C21.2198 6.86839 21.8938 5.86152 21.7547 4.79207C21.6153 3.72284 20.7062 2.923 19.6299 2.92278H16.758V2.22021C16.7612 1.62939 16.5281 1.06206 16.1107 0.644685C15.6933 0.227532 15.1262 -0.00475634 14.5366 7.385e-05H9.55561C8.96596 -0.00475634 8.39889 0.227532 7.98148 0.644685C7.56406 1.06206 7.33092 1.62939 7.33421 2.22021V2.92278H4.46225C3.38595 2.923 2.47684 3.72284 2.33748 4.79207C2.19834 5.86152 2.87235 6.86839 3.91249 7.14503ZM17.3526 22.8759H6.73953C5.78045 22.8759 5.03436 22.0504 5.03436 20.993V7.19443H19.0578V20.993C19.0578 22.0504 18.3117 22.8759 17.3526 22.8759ZM8.45608 2.22021C8.45236 1.92754 8.56717 1.64585 8.77446 1.43925C8.98152 1.23265 9.2633 1.11914 9.55561 1.12419H14.5366C14.8289 1.11914 15.1106 1.23265 15.3177 1.43925C15.525 1.64563 15.6398 1.92754 15.6361 2.22021V2.92278H8.45608V2.22021ZM4.46225 4.0469H19.6299C20.1876 4.0469 20.6396 4.49984 20.6396 5.05861C20.6396 5.61737 20.1876 6.07031 19.6299 6.07031H4.46225C3.9046 6.07031 3.45256 5.61737 3.45256 5.05861C3.45256 4.49984 3.9046 4.0469 4.46225 4.0469Z" fill="#DC3545"/>
<path d="M12.0463 8.69531C11.7365 8.69531 11.4854 8.94692 11.4854 9.25737V19.8803C11.4854 20.1906 11.7365 20.4424 12.0463 20.4424C12.3561 20.4424 12.6072 20.1906 12.6072 19.8803V9.25737C12.6072 8.94692 12.3561 8.69531 12.0463 8.69531Z" fill="#DC3545"/>
</g>
<defs>
<clipPath id="clip0_846_205">
<rect width="23.9521" height="24" fill="white" transform="translate(0.0759277)"/>
</clipPath>
</defs>
</svg>
