<svg width="25" height="24" viewBox="0 0 25 24" fill="none" xmlns="http://www.w3.org/2000/svg">
<g clip-path="url(#clip0_846_204)">
<path d="M22.2685 15.0766C21.939 15.0766 21.6719 15.3442 21.6719 15.6743V20.9815C21.6708 21.9714 20.8703 22.7737 19.8823 22.7746H3.14428C2.15627 22.7737 1.35585 21.9714 1.35468 20.9815V5.40537C1.35585 4.41562 2.15627 3.61336 3.14428 3.6122H8.44082C8.77031 3.6122 9.03735 3.34462 9.03735 3.01447C9.03735 2.68456 8.77031 2.41675 8.44082 2.41675H3.14428C1.49776 2.41862 0.163485 3.75556 0.161621 5.40537V20.9817C0.163485 22.6315 1.49776 23.9684 3.14428 23.9703H19.8823C21.5289 23.9684 22.8631 22.6315 22.865 20.9817V15.6743C22.865 15.3442 22.598 15.0766 22.2685 15.0766Z" fill="#008F02"/>
<path d="M22.6285 0.878905C21.5801 -0.171549 19.8805 -0.171549 18.8321 0.878905L8.18962 11.5427C8.11668 11.6158 8.06402 11.7064 8.03652 11.8058L6.637 16.8685C6.57945 17.0761 6.63793 17.2983 6.78986 17.4508C6.94203 17.603 7.16386 17.6616 7.37102 17.6042L12.4236 16.2017C12.5229 16.1741 12.6133 16.1213 12.6862 16.0483L23.3285 5.38425C24.3752 4.3331 24.3752 2.63145 23.3285 1.5803L22.6285 0.878905ZM9.4894 11.9312L18.1995 3.20349L21.0085 6.01817L12.2982 14.7459L9.4894 11.9312ZM8.92829 13.0594L11.1725 15.3083L8.06821 16.1701L8.92829 13.0594ZM22.4849 4.53903L21.8523 5.17295L19.043 2.35804L19.6759 1.72412C20.2582 1.14064 21.2024 1.14064 21.7847 1.72412L22.4849 2.42552C23.0663 3.0097 23.0663 3.95508 22.4849 4.53903Z" fill="#008F02"/>
</g>
<defs>
<clipPath id="clip0_846_204">
<rect width="23.9521" height="24" fill="white" transform="translate(0.161621)"/>
</clipPath>
</defs>
</svg>
