<svg width="163" height="89" viewBox="0 0 163 89" fill="none" xmlns="http://www.w3.org/2000/svg">
<rect x="0.179932" width="161.987" height="89" fill="#68478D"/>
<path d="M104.392 29.6009C104.223 39.34 98.2411 48.2548 88.9566 51.5396C84.43 53.1633 79.5122 53.348 74.8766 52.0683C70.2411 50.7886 66.1145 48.1072 63.062 44.3911C60.0096 40.6751 58.1806 36.1063 57.8256 31.3105C57.4705 26.5147 58.6068 21.7264 61.0788 17.6014C63.5923 13.4752 67.3143 10.2221 71.7399 8.28366C76.1654 6.34518 81.0802 5.81511 85.8173 6.76539C96.6533 9.00774 104.205 18.6741 104.392 29.6009C104.392 30.7706 106.21 30.7706 106.21 29.6009C106.166 24.4784 104.577 19.4884 101.651 15.2834C98.7254 11.0784 94.5989 7.85413 89.8111 6.03208C84.9311 4.22556 79.6107 3.97795 74.584 5.32341C69.5573 6.66888 65.072 9.54111 61.7469 13.5438C58.4219 17.5466 56.4209 22.4825 56.0201 27.6707C55.6192 32.8589 56.8383 38.0436 59.5091 42.5096C62.1548 46.8601 66.0476 50.3145 70.6819 52.4241C75.3161 54.5338 80.4777 55.2011 85.4961 54.3395C97.4896 52.2304 106.004 41.6126 106.217 29.5949C106.229 28.4313 104.411 28.4313 104.392 29.6009Z" fill="url(#paint0_linear_846_268)"/>
<path d="M52.7761 30.51H109.944C110.185 30.51 110.416 30.4143 110.587 30.2438C110.757 30.0733 110.853 29.8421 110.853 29.601C110.853 29.3599 110.757 29.1286 110.587 28.9582C110.416 28.7877 110.185 28.6919 109.944 28.6919H52.7761C52.535 28.6919 52.3038 28.7877 52.1333 28.9582C51.9628 29.1286 51.8671 29.3599 51.8671 29.601C51.8671 29.8421 51.9628 30.0733 52.1333 30.2438C52.3038 30.4143 52.535 30.51 52.7761 30.51Z" fill="url(#paint1_linear_846_268)"/>
<path d="M7.62756 84.5181V65.1435H14.3691C20.0555 65.1435 22.3125 67.5177 22.3125 71.7678C22.3125 75.9886 20.1141 78.8025 13.9588 78.8025H12.5518V84.5181H7.62756ZM14.1933 69.2763H12.5518V74.6403H13.9295C16.3037 74.6403 17.183 73.8782 17.183 71.973C17.183 69.9212 16.1571 69.2763 14.1933 69.2763ZM37.3198 78.7145H28.6437C28.7609 80.6784 29.3178 81.5284 31.223 81.5284C32.3955 81.5284 33.099 81.206 33.3041 80.1508L37.3198 80.8542C36.5577 83.4043 34.7404 84.9285 31.0765 84.9285C26.5039 84.9285 23.8659 82.5543 23.8659 77.8352C23.8659 74.0247 25.566 70.4195 30.8713 70.4195C35.18 70.4195 37.3198 72.7937 37.3198 77.2197V78.7145ZM30.6954 73.673C29.5816 73.673 28.9368 74.2006 28.7023 75.93H32.5127V75.9007C32.5127 74.2885 31.8972 73.673 30.6954 73.673ZM39.7233 84.5181V70.8298H43.9734V73.1747C44.6182 71.7092 45.7614 70.4195 47.608 70.4195C49.777 70.4195 50.4512 71.8557 50.4512 71.8557L47.7252 75.7834C47.7252 75.7834 47.3735 74.8161 46.3769 74.8161C45.3217 74.8161 44.7648 76.1938 44.2958 77.63V84.5181H39.7233ZM50.8615 74.2592V70.8298H52.6202V69.4229C52.6202 65.4952 54.7599 63.0331 58.9221 63.0331C62.2342 63.0331 63.4067 64.5865 63.4067 64.5865L60.6221 67.7815C60.3876 67.1366 59.7721 66.7556 58.9514 66.7556C57.6031 66.7556 57.1927 67.8401 57.1927 69.9798V70.8298H60.3876V74.2592H57.1927V84.5181H52.6202V74.2592H50.8615ZM74.926 78.7145H66.2499C66.3671 80.6784 66.924 81.5284 68.8293 81.5284C70.0017 81.5284 70.7052 81.206 70.9104 80.1508L74.926 80.8542C74.1639 83.4043 72.3466 84.9285 68.6827 84.9285C64.1102 84.9285 61.4722 82.5543 61.4722 77.8352C61.4722 74.0247 63.1722 70.4195 68.4775 70.4195C72.7863 70.4195 74.926 72.7937 74.926 77.2197V78.7145ZM68.3017 73.673C67.1878 73.673 66.543 74.2006 66.3085 75.93H70.1189V75.9007C70.1189 74.2885 69.5034 73.673 68.3017 73.673ZM85.4194 79.6525L89.6695 80.5025C88.8781 83.1112 87.3539 84.9285 83.5728 84.9285C78.8244 84.9285 76.714 82.2612 76.714 77.63C76.714 72.2074 79.7037 70.4195 83.69 70.4195C87.4418 70.4195 89.904 72.2074 89.5816 75.3144L85.0969 76.2231C85.3607 74.3765 84.4521 73.8196 83.6314 73.8196C81.6675 73.8196 81.4624 75.93 81.4624 77.8938C81.4624 80.3266 82.0486 81.5284 83.6314 81.5284C84.7452 81.5284 85.4194 80.8249 85.4194 79.6525ZM90.9006 74.2592V70.8298H92.6299L92.8937 67.078H97.1438V70.8298H100.896V74.2592H97.1438V80.0628C97.1438 80.737 97.349 81.1473 97.9352 81.1473C98.668 81.1473 98.8146 80.3266 98.8732 79.5059L102.215 80.6784C101.628 82.9939 100.72 84.8112 97.3783 84.8112C93.7437 84.8112 92.5713 82.4957 92.5713 80.0628V74.2592H90.9006ZM104.179 84.5181V65.1435H109.103V80.2973H116.694V84.5181H104.179ZM118.248 66.0521C118.248 64.6452 119.42 63.502 120.827 63.502C122.263 63.502 123.407 64.6452 123.407 66.0521C123.407 67.459 122.263 68.6315 120.827 68.6315C119.42 68.6315 118.248 67.459 118.248 66.0521ZM118.541 84.5181V70.8298H123.114V84.5181H118.541ZM126.162 84.5181V70.8298H130.412V72.9988C130.764 72.1781 131.907 70.4195 134.955 70.4195C136.978 70.4195 139.323 71.2402 139.323 75.5196V84.5181H134.75V76.692C134.75 75.0799 134.369 74.2885 133.431 74.2885C131.79 74.2885 130.969 76.5748 130.734 77.4541V84.5181H126.162ZM155.092 78.7145H146.416C146.533 80.6784 147.09 81.5284 148.995 81.5284C150.168 81.5284 150.871 81.206 151.076 80.1508L155.092 80.8542C154.33 83.4043 152.513 84.9285 148.849 84.9285C144.276 84.9285 141.638 82.5543 141.638 77.8352C141.638 74.0247 143.338 70.4195 148.644 70.4195C152.952 70.4195 155.092 72.7937 155.092 77.2197V78.7145ZM148.468 73.673C147.354 73.673 146.709 74.2006 146.475 75.93H150.285V75.9007C150.285 74.2885 149.669 73.673 148.468 73.673Z" fill="white"/>
<defs>
<linearGradient id="paint0_linear_846_268" x1="7.62756" y1="4.46857" x2="155.092" y2="4.46857" gradientUnits="userSpaceOnUse">
<stop stop-color="#6D7CFF"/>
<stop offset="1" stop-color="#FF51FF"/>
</linearGradient>
<linearGradient id="paint1_linear_846_268" x1="7.62756" y1="4.46857" x2="155.092" y2="4.46857" gradientUnits="userSpaceOnUse">
<stop stop-color="#6D7CFF"/>
<stop offset="1" stop-color="#FF51FF"/>
</linearGradient>
</defs>
</svg>
