<svg width="163" height="90" viewBox="0 0 163 90" fill="none" xmlns="http://www.w3.org/2000/svg">
<rect width="163" height="89.5563" fill="#001871"/>
<path d="M104.864 29.7861C104.693 39.586 98.674 48.5565 89.3315 51.8618C84.7767 53.4957 79.8281 53.6816 75.1636 52.3939C70.499 51.1062 66.3466 48.4079 63.2751 44.6687C60.2036 40.9295 58.3632 36.3321 58.0059 31.5063C57.6487 26.6805 58.792 21.8622 61.2794 17.7115C63.8087 13.5595 67.554 10.2861 72.0072 8.33552C76.4604 6.38492 81.4059 5.85155 86.1726 6.80776C97.0763 9.06412 104.675 18.7909 104.864 29.7861C104.864 30.963 106.693 30.963 106.693 29.7861C106.649 24.6315 105.05 19.6103 102.106 15.379C99.1614 11.1478 95.009 7.90331 90.1913 6.06987C85.2808 4.25205 79.9272 4.0029 74.8691 5.35677C69.811 6.71065 65.2977 9.60083 61.9518 13.6286C58.6059 17.6563 56.5924 22.6231 56.1891 27.8438C55.7858 33.0644 57.0125 38.2815 59.7 42.7754C62.3622 47.1531 66.2794 50.6291 70.9426 52.7519C75.6058 54.8747 80.7996 55.5462 85.8494 54.6792C97.9179 52.557 106.486 41.8728 106.699 29.78C106.712 28.6091 104.882 28.6091 104.864 29.7861Z" fill="url(#paint0_linear_846_259)"/>
<path d="M52.9248 30.7008H110.45C110.692 30.7008 110.925 30.6044 111.097 30.4328C111.268 30.2613 111.365 30.0286 111.365 29.786C111.365 29.5434 111.268 29.3107 111.097 29.1392C110.925 28.9677 110.692 28.8713 110.45 28.8713H52.9248C52.6822 28.8713 52.4496 28.9677 52.278 29.1392C52.1065 29.3107 52.0101 29.5434 52.0101 29.786C52.0101 30.0286 52.1065 30.2613 52.278 30.4328C52.4496 30.6044 52.6822 30.7008 52.9248 30.7008Z" fill="url(#paint1_linear_846_259)"/>
<path d="M7.49423 85.0465V65.5507H14.2779C19.9998 65.5507 22.2709 67.9397 22.2709 72.2164C22.2709 76.4636 20.0588 79.2951 13.865 79.2951H12.4493V85.0465H7.49423ZM14.101 69.7094H12.4493V75.1069H13.8355C16.2246 75.1069 17.1094 74.34 17.1094 72.4229C17.1094 70.3583 16.0771 69.7094 14.101 69.7094ZM37.372 79.2066H28.6417C28.7597 81.1827 29.3201 82.038 31.2372 82.038C32.417 82.038 33.1248 81.7136 33.3313 80.6518L37.372 81.3597C36.6052 83.9257 34.7765 85.4594 31.0897 85.4594C26.4886 85.4594 23.8341 83.0704 23.8341 78.3218C23.8341 74.4875 25.5448 70.8597 30.8833 70.8597C35.2189 70.8597 37.372 73.2487 37.372 77.7024V79.2066ZM30.7063 74.1336C29.5855 74.1336 28.9366 74.6645 28.7007 76.4046H32.535V76.3751C32.535 74.7529 31.9156 74.1336 30.7063 74.1336ZM39.7906 85.0465V71.2726H44.0673V73.6321C44.7161 72.1574 45.8664 70.8597 47.7246 70.8597C49.9071 70.8597 50.5855 72.3049 50.5855 72.3049L47.8425 76.2571C47.8425 76.2571 47.4886 75.2838 46.4858 75.2838C45.424 75.2838 44.8636 76.6701 44.3917 78.1153V85.0465H39.7906ZM50.9984 74.7234V71.2726H52.7681V69.8569C52.7681 65.9046 54.9212 63.4271 59.1094 63.4271C62.4422 63.4271 63.622 64.9903 63.622 64.9903L60.8201 68.2052C60.5841 67.5563 59.9647 67.1729 59.1389 67.1729C57.7821 67.1729 57.3692 68.2642 57.3692 70.4173V71.2726H60.5841V74.7234H57.3692V85.0465H52.7681V74.7234H50.9984ZM75.2133 79.2066H66.483C66.601 81.1827 67.1614 82.038 69.0785 82.038C70.2583 82.038 70.9661 81.7136 71.1726 80.6518L75.2133 81.3597C74.4465 83.9257 72.6178 85.4594 68.931 85.4594C64.3299 85.4594 61.6754 83.0704 61.6754 78.3218C61.6754 74.4875 63.3861 70.8597 68.7246 70.8597C73.0602 70.8597 75.2133 73.2487 75.2133 77.7024V79.2066ZM68.5476 74.1336C67.4268 74.1336 66.7779 74.6645 66.542 76.4046H70.3762V76.3751C70.3762 74.7529 69.7569 74.1336 68.5476 74.1336ZM85.7723 80.1504L90.049 81.0057C89.2526 83.6307 87.7189 85.4594 83.9142 85.4594C79.1361 85.4594 77.0125 82.7754 77.0125 78.1153C77.0125 72.6588 80.0209 70.8597 84.0321 70.8597C87.8074 70.8597 90.2849 72.6588 89.9605 75.7852L85.4479 76.6996C85.7133 74.8414 84.799 74.281 83.9731 74.281C81.997 74.281 81.7906 76.4046 81.7906 78.3807C81.7906 80.8288 82.3804 82.038 83.9731 82.038C85.0939 82.038 85.7723 81.3302 85.7723 80.1504ZM91.2878 74.7234V71.2726H93.0279L93.2934 67.4973H97.57V71.2726H101.345V74.7234H97.57V80.5633C97.57 81.2417 97.7765 81.6546 98.3664 81.6546C99.1038 81.6546 99.2512 80.8288 99.3102 80.0029L102.673 81.1827C102.083 83.5128 101.168 85.3414 97.806 85.3414C94.1487 85.3414 92.9689 83.0114 92.9689 80.5633V74.7234H91.2878ZM104.649 85.0465V65.5507H109.604V80.7993H117.243V85.0465H104.649ZM118.806 66.465C118.806 65.0493 119.986 63.899 121.401 63.899C122.847 63.899 123.997 65.0493 123.997 66.465C123.997 67.8807 122.847 69.0605 121.401 69.0605C119.986 69.0605 118.806 67.8807 118.806 66.465ZM119.101 85.0465V71.2726H123.702V85.0465H119.101ZM126.769 85.0465V71.2726H131.046V73.4552C131.4 72.6293 132.55 70.8597 135.618 70.8597C137.653 70.8597 140.012 71.6855 140.012 75.9917V85.0465H135.411V77.1715C135.411 75.5493 135.028 74.7529 134.084 74.7529C132.432 74.7529 131.607 77.0535 131.371 77.9383V85.0465H126.769ZM155.88 79.2066H147.15C147.268 81.1827 147.828 82.038 149.746 82.038C150.925 82.038 151.633 81.7136 151.84 80.6518L155.88 81.3597C155.114 83.9257 153.285 85.4594 149.598 85.4594C144.997 85.4594 142.343 83.0704 142.343 78.3218C142.343 74.4875 144.053 70.8597 149.392 70.8597C153.727 70.8597 155.88 73.2487 155.88 77.7024V79.2066ZM149.215 74.1336C148.094 74.1336 147.445 74.6645 147.209 76.4046H151.043V76.3751C151.043 74.7529 150.424 74.1336 149.215 74.1336Z" fill="white"/>
<defs>
<linearGradient id="paint0_linear_846_259" x1="7.49438" y1="43.5352" x2="155.881" y2="43.5352" gradientUnits="userSpaceOnUse">
<stop stop-color="#6D7CFF"/>
<stop offset="1" stop-color="#FF51FF"/>
</linearGradient>
<linearGradient id="paint1_linear_846_259" x1="7.49438" y1="43.5352" x2="155.881" y2="43.5352" gradientUnits="userSpaceOnUse">
<stop stop-color="#6D7CFF"/>
<stop offset="1" stop-color="#FF51FF"/>
</linearGradient>
</defs>
</svg>
